<svg width="500" height="500" viewBox="0 0 500 500" fill="none" xmlns="http://www.w3.org/2000/svg">
<g clip-path="url(#clip0_95_2)">
<path d="M250 455L250 233" stroke="black" stroke-width="43.872" stroke-linecap="round" stroke-linejoin="round"/>
<path d="M479 112.55V66.85C479 60.7898 476.593 54.9778 472.307 50.6926C468.022 46.4074 462.21 44 456.15 44H341.9C317.659 44 294.411 53.6296 277.27 70.7704C260.13 87.9113 250.5 111.159 250.5 135.4C250.5 111.159 240.87 87.9113 223.73 70.7704C206.589 53.6296 183.341 44 159.1 44H44.85C38.7898 44 32.9778 46.4074 28.6926 50.6926C24.4074 54.9778 22 60.7898 22 66.85V363.9C22 369.96 24.4074 375.772 28.6926 380.057C32.9778 384.343 38.7898 386.75 44.85 386.75H181.95C200.131 386.75 217.567 393.972 230.422 406.828C243.278 419.683 250.5 437.119 250.5 455.3C250.5 437.119 257.722 419.683 270.578 406.828C283.433 393.972 300.869 386.75 319.05 386.75H456.15C462.21 386.75 468.022 384.343 472.307 380.057C476.593 375.772 479 369.96 479 363.9V334.195" stroke="black" stroke-width="43.872" stroke-linecap="round" stroke-linejoin="round"/>
<path d="M384.097 182.445L382.92 221.361Z" fill="#D9D9D9"/>
<path d="M384.097 182.445L382.92 221.361" stroke="black" stroke-width="21.936" stroke-linecap="round" stroke-linejoin="round"/>
<path d="M423.932 251.115L454.7 252.098Z" fill="#D9D9D9"/>
<path d="M423.932 251.115L454.7 252.098" stroke="black" stroke-width="21.936" stroke-linecap="round" stroke-linejoin="round"/>
<path d="M233.72 215.517C235.981 212.371 239.128 209.969 242.76 208.619C246.392 207.269 250.344 207.032 254.111 207.937C257.878 208.842 261.291 210.849 263.913 213.702C266.535 216.554 268.248 220.123 268.833 223.954L272.231 248.985C274.332 265.026 281.341 280.024 292.296 291.928C303.251 303.831 317.618 312.058 333.429 315.481C349.24 318.905 365.723 317.358 380.621 311.052C395.519 304.746 408.103 293.989 416.652 280.255L419.76 275.363C421.799 272.127 423.179 268.522 423.824 264.752C424.469 260.982 424.365 257.123 423.518 253.393C422.671 249.664 421.098 246.138 418.888 243.016C416.678 239.895 413.876 237.239 410.64 235.201C407.404 233.163 403.798 231.782 400.028 231.137C396.259 230.493 392.399 230.597 388.67 231.444C384.94 232.291 381.414 233.864 378.293 236.073C375.171 238.283 372.516 241.086 370.477 244.322L367.369 249.214C365.117 252.717 361.848 255.448 358 257.041C354.152 258.635 349.909 259.014 345.839 258.128C341.77 257.242 338.068 255.134 335.23 252.085C332.393 249.037 330.555 245.194 329.962 241.071L326.564 216.039C324.595 200.465 317.931 185.859 307.459 174.164C296.986 162.469 283.201 154.24 267.938 150.57C252.674 146.901 236.655 147.965 222.011 153.621C207.367 159.278 194.792 169.259 185.959 182.236L180.535 189.863C178.349 193.016 176.806 196.568 175.993 200.318C175.18 204.067 175.114 207.94 175.798 211.715C177.179 219.34 181.533 226.103 187.901 230.517C194.268 234.931 202.129 236.635 209.753 235.254C217.378 233.873 224.141 229.519 228.555 223.151L233.72 215.517Z" stroke="black" stroke-width="21.936" stroke-linecap="round" stroke-linejoin="round"/>
</g>
<defs>
<clipPath id="clip0_95_2">
<rect width="500" height="500" fill="white"/>
</clipPath>
</defs>
</svg>
